<svg xmlns="http://www.w3.org/2000/svg" viewBox="0 0 128 128">
  <defs>
    <linearGradient id="g" x1="0" y1="0" x2="1" y2="1">
      <stop offset="0%" stop-color="#38bdf8" />
      <stop offset="100%" stop-color="#8b5cf6" />
    </linearGradient>
    <radialGradient id="glow" cx="50%" cy="50%" r="50%">
      <stop offset="0%" stop-color="#ffffff" stop-opacity="0.9" />
      <stop offset="100%" stop-color="#8b5cf6" stop-opacity="0" />
    </radialGradient>
  </defs>
  <rect width="128" height="128" rx="32" fill="#07070f" />
  <circle cx="64" cy="64" r="50" fill="url(#glow)" opacity="0.35" />
  <path d="M60 37c-8 0-14 5-16 10-6 0-10 5-10 11 0 6 4 10 10 11 2 5 8 10 16 10 8 0 14-5 16-10 6 0 10-5 10-11 0-6-4-11-10-11-2-5-8-10-16-10zm0 4c5 0 10 4 11 8h1c3 0 5 2 5 5s-2 5-5 5h-1c-1 4-6 8-11 8-5 0-9-4-10-8h-1c-3 0-5-2-5-5s2-5 5-5h1c1-4 5-8 10-8z" fill="url(#g)" />
  <circle cx="47" cy="57" r="4" fill="#07070f" />
  <circle cx="81" cy="57" r="4" fill="#07070f" />
</svg>
